<?xml version="1.0" standalone="no"?>
<!DOCTYPE svg PUBLIC "-//W3C//DTD SVG 20010904//EN"
 "http://www.w3.org/TR/2001/REC-SVG-20010904/DTD/svg10.dtd">
<svg version="1.0" xmlns="http://www.w3.org/2000/svg"
 width="260.000000pt" height="260.000000pt" viewBox="0 0 260.000000 260.000000"
 preserveAspectRatio="xMidYMid meet">
<metadata>
Created by potrace 1.14, written by Peter Selinger 2001-2017
</metadata>
<g transform="translate(0.000000,260.000000) scale(0.100000,-0.100000)"
fill="#000000" stroke="none">
<path d="M0 1300 l0 -1300 1300 0 1300 0 0 734 0 734 -42 -21 c-40 -21 -61
-22 -323 -27 l-280 -5 -6 -280 c-6 -247 -9 -289 -28 -354 -28 -93 -43 -122
-81 -155 -42 -35 -55 -33 -100 12 -43 43 -75 131 -90 246 -5 38 -13 73 -18 78
-5 5 -29 -26 -62 -83 -93 -161 -180 -249 -247 -249 -42 0 -113 82 -233 270
-51 80 -97 149 -101 154 -5 5 -48 -74 -97 -175 -71 -148 -96 -191 -127 -217
-53 -43 -86 -49 -131 -21 -64 39 -116 128 -267 451 -158 339 -181 397 -167
432 11 29 52 56 84 56 35 0 88 -27 109 -56 10 -14 77 -149 148 -302 71 -152
132 -277 136 -277 5 0 49 81 98 180 68 136 98 186 125 207 56 43 82 43 139 -2
59 -47 71 -62 196 -258 94 -146 99 -152 115 -135 10 10 79 124 154 253 l136
235 0 353 c0 400 -2 391 83 469 58 54 73 55 457 51 328 -3 336 -4 398 -61 l22
-20 0 191 0 192 -1300 0 -1300 0 0 -1300z"/>
<path d="M2582 2107 c-7 -8 -34 -26 -60 -39 -45 -22 -59 -23 -304 -26 l-258
-3 0 -179 0 -179 283 -3 c250 -3 286 -5 315 -21 19 -10 36 -17 38 -14 2 2 3
111 2 242 -3 197 -5 235 -16 222z"/>
</g>
</svg>
